<svg width="37" height="33" viewBox="0 0 37 33" fill="none" xmlns="http://www.w3.org/2000/svg">
<path d="M27.1388 29.4377C27.084 28.2643 27.0112 27.0971 26.9531 25.9325C26.7649 22.2893 26.7803 18.5927 26.5835 14.9315C26.3866 11.2977 26.5034 7.6615 26.3995 4.02786C26.3786 3.27266 26.4123 1.78123 25.6309 1.35071C23.9499 0.425877 22.952 2.94848 22.5243 3.97549C21.7534 5.83963 21.308 7.80025 20.7574 9.73151C20.2881 11.3846 19.7536 13.0324 19.5725 14.7439C19.4383 16.0282 19.4506 17.4659 20.1215 18.6231C20.4585 19.2047 21.041 19.6005 21.7043 19.7679C22.3927 19.944 23.1799 19.7134 23.8331 20.0243C24.0015 20.1056 24.1499 20.2747 24.2174 20.4455C24.4292 20.9957 24.2289 21.8305 24.1627 22.3982C23.953 24.2269 23.7313 26.0738 23.632 27.9113C23.5733 29.0225 23.5084 30.4457 24.1806 31.4139C24.5927 32.0018 25.4277 32.5508 26.1812 32.2586C27.3073 31.8276 27.1856 30.3715 27.1388 29.4377V29.4377Z" fill="white"/>
<path d="M12.8123 2.16238C12.4886 2.29212 12.6114 3.4492 12.5969 3.80471C12.5757 4.44342 12.6193 5.28857 12.5424 6.11634C12.5419 6.12374 12.5408 6.12887 12.5397 6.134C12.5331 6.19153 12.5277 6.25357 12.5182 6.3191C12.5081 6.38236 12.4974 6.44336 12.4896 6.50601C12.4206 6.90959 12.2893 7.38752 12.0411 7.61665C11.7592 7.87873 11.1277 7.82361 10.9083 7.51395C10.5495 7.00988 10.5764 5.88448 10.5546 5.85129C10.54 5.31889 10.4624 3.7086 10.3461 2.64692C10.3365 2.56693 10.321 2.0857 9.88163 2.03428C9.67674 2.01203 9.46114 2.18663 9.39127 2.50552C9.18492 3.44681 8.99167 5.24113 8.9795 5.52328C8.97703 5.5506 8.97582 5.58246 8.9757 5.60917C8.9757 5.60917 8.97461 5.61431 8.97524 5.61657C8.9739 5.67514 8.90412 7.08091 8.54837 7.56589C8.36245 7.82016 7.87974 8.02013 7.40004 7.75108C7.20898 7.64276 7.07804 7.43399 6.98574 7.21038C6.48409 5.64904 6.9344 3.92899 6.99849 3.10939C7.01745 2.87886 7.22621 2.1092 6.76049 2.13495C6.05926 2.17304 5.1537 5.16072 4.99179 5.84549C4.59482 7.54932 4.53464 9.3699 5.22513 11.0134C5.60874 11.9236 6.35899 12.6686 7.28937 13.0298C7.70054 13.188 8.15751 13.3028 8.64134 13.3694C8.46726 17.2428 8.26961 21.2848 8.08961 23.5342C7.95117 25.227 7.78772 26.9385 7.8097 28.6383C7.8227 29.6539 7.812 30.8649 8.47865 31.7164C9.17603 32.6061 10.6469 32.1968 11.0441 31.1456C11.4896 29.9605 11.36 28.5796 11.2083 26.4037C11.056 24.2256 10.8846 21.2543 10.7901 19.6557C10.6518 17.3017 10.6035 15.2447 10.5902 13.3679C11.8289 13.1909 12.9841 12.6594 13.6307 11.682C13.9144 11.2545 14.1011 10.7768 14.2287 10.2853C14.4243 9.54083 14.5197 8.72527 14.4774 7.95741C14.4345 7.25039 13.8534 1.7453 12.8123 2.16238V2.16238Z" fill="white"/>
</svg>
