<svg width="37" height="33" viewBox="0 0 37 33" fill="none" xmlns="http://www.w3.org/2000/svg">
<path d="M27.1369 29.4377C27.082 28.2643 27.0093 27.0971 26.9511 25.9325C26.763 22.2893 26.7784 18.5927 26.5815 14.9315C26.3846 11.2977 26.5014 7.6615 26.3975 4.02786C26.3766 3.27266 26.4103 1.78123 25.6289 1.35071C23.9479 0.425877 22.95 2.94848 22.5224 3.97549C21.7514 5.83963 21.3061 7.80025 20.7554 9.73151C20.2861 11.3846 19.7516 13.0324 19.5705 14.7439C19.4364 16.0282 19.4487 17.4659 20.1196 18.6231C20.4565 19.2047 21.039 19.6005 21.7024 19.7679C22.3908 19.944 23.1779 19.7134 23.8312 20.0243C23.9996 20.1056 24.1479 20.2747 24.2155 20.4455C24.4272 20.9957 24.2269 21.8305 24.1607 22.3982C23.951 24.2269 23.7293 26.0738 23.6301 27.9113C23.5713 29.0225 23.5064 30.4457 24.1787 31.4139C24.5907 32.0018 25.4258 32.5508 26.1792 32.2586C27.3054 31.8276 27.1837 30.3715 27.1369 29.4377V29.4377Z" fill="white"/>
<path d="M12.8103 2.16238C12.4867 2.29212 12.6094 3.4492 12.595 3.80471C12.5737 4.44342 12.6173 5.28857 12.5404 6.11634C12.5399 6.12374 12.5389 6.12887 12.5378 6.134C12.5311 6.19153 12.5257 6.25357 12.5162 6.3191C12.5062 6.38236 12.4954 6.44336 12.4877 6.50601C12.4187 6.90959 12.2874 7.38752 12.0391 7.61665C11.7573 7.87873 11.1257 7.82361 10.9064 7.51395C10.5475 7.00988 10.5745 5.88448 10.5527 5.85129C10.5381 5.31889 10.4605 3.7086 10.3441 2.64692C10.3345 2.56693 10.319 2.0857 9.87967 2.03428C9.67479 2.01203 9.45919 2.18663 9.38932 2.50552C9.18296 3.44681 8.98972 5.24113 8.97755 5.52328C8.97508 5.5506 8.97387 5.58246 8.97374 5.60917C8.97374 5.60917 8.97266 5.61431 8.97328 5.61657C8.97195 5.67514 8.90217 7.08091 8.54642 7.56589C8.3605 7.82016 7.87779 8.02013 7.39809 7.75108C7.20702 7.64276 7.07609 7.43399 6.98379 7.21038C6.48214 5.64904 6.93245 3.92899 6.99654 3.10939C7.0155 2.87886 7.22426 2.1092 6.75854 2.13495C6.05731 2.17304 5.15174 5.16072 4.98983 5.84549C4.59287 7.54932 4.53268 9.3699 5.22317 11.0134C5.60679 11.9236 6.35704 12.6686 7.28742 13.0298C7.69859 13.188 8.15556 13.3028 8.63938 13.3694C8.46531 17.2428 8.26766 21.2848 8.08766 23.5342C7.94922 25.227 7.78576 26.9385 7.80775 28.6383C7.82075 29.6539 7.81004 30.8649 8.4767 31.7164C9.17408 32.6061 10.645 32.1968 11.0421 31.1456C11.4876 29.9605 11.3581 28.5796 11.2064 26.4037C11.0541 24.2256 10.8826 21.2543 10.7881 19.6557C10.6498 17.3017 10.6016 15.2447 10.5883 13.3679C11.8269 13.1909 12.9822 12.6594 13.6287 11.682C13.9124 11.2545 14.0992 10.7768 14.2267 10.2853C14.4224 9.54083 14.5178 8.72527 14.4755 7.95741C14.4325 7.25039 13.8515 1.7453 12.8103 2.16238V2.16238Z" fill="white"/>
</svg>
