<svg width="411" height="114" viewBox="0 0 411 114" fill="none" xmlns="http://www.w3.org/2000/svg">
<path d="M90.4419 18.2695L89.9248 18.5681C76.2719 26.4506 71.5941 43.9084 79.4766 57.5613L100.822 94.5329L101.339 94.2344C114.992 86.3519 119.67 68.8941 111.788 55.2412L90.4419 18.2695Z" fill="white"/>
<path d="M36.8062 0.641113L36.2891 0.939655C22.6362 8.82214 17.9584 26.28 25.8409 39.9328L53.961 88.6384C61.8435 102.291 79.3014 106.969 92.9542 99.0866L93.4713 98.7881L36.8062 0.641113Z" fill="white"/>
<path d="M32.5233 68.5344C36.547 75.5036 34.1592 84.4152 27.1899 88.4388C20.2207 92.4625 11.3092 90.0747 7.28552 83.1055C3.26184 76.1362 5.64967 67.2247 12.6189 63.201C19.5881 59.1774 28.4996 61.5652 32.5233 68.5344Z" fill="white"/>
<path d="M192.208 57.1923V81.7553H180.043V59.9327C180.043 55.7461 176.651 52.354 172.464 52.354C168.278 52.354 164.886 55.7461 164.886 59.9327V81.7553H152.721V29.0327H164.886V47.4442C167.707 43.995 172.003 41.7923 176.808 41.7923C177.916 41.7923 179.001 41.9113 180.043 42.1349C185.409 43.2814 189.734 47.2159 191.432 52.354C191.937 53.8764 192.208 55.5034 192.208 57.1923Z" fill="white"/>
<path d="M362.66 52.3468C360.538 47.7273 356.899 44.1972 352.517 42.651C350.933 42.0849 349.253 41.7852 347.512 41.7852C342.674 41.7852 338.306 44.1116 335.185 47.8557V41.7852H323.021V100.778H335.185V75.6776C338.306 79.4217 342.674 81.7481 347.512 81.7481C349.253 81.7481 350.933 81.4484 352.517 80.8823C356.941 79.3171 360.61 75.7299 362.722 71.0438C363.978 68.2702 364.687 65.1159 364.687 61.7667C364.687 58.3603 363.954 55.1537 362.66 52.3468ZM343.854 71.0438C339.068 71.0438 335.185 66.8572 335.185 61.6953C335.185 56.5334 339.068 52.3468 343.854 52.3468C348.64 52.3468 352.517 56.5334 352.517 61.6953C352.517 66.8572 348.64 71.0438 343.854 71.0438Z" fill="white"/>
<path d="M260.829 68.8916C260.829 70.0857 261.795 71.0514 262.984 71.0514H268.798V81.7558H258.332C252.989 81.7558 248.66 77.4265 248.66 72.0886C248.66 71.7365 248.679 71.394 248.712 71.0514H248.66V52.3545H244.059V41.7928H248.66V32.2778H260.829V41.7928H268.798V52.3545H260.829V68.8916Z" fill="white"/>
<path d="M318.146 41.7688L313.722 52.3305L305.891 71.0274L302.175 79.8954V79.9002L301.409 81.7318L295.582 95.6427L293.441 100.762H280.248L288.217 81.7318L288.988 79.8954L285.272 71.0274L277.446 52.3305L273.021 41.7688H286.209L290.634 52.3305L295.582 64.1481L300.529 52.3305L304.954 41.7688H318.146Z" fill="white"/>
<path d="M226.807 22.9988V32.2426L226.764 32.2616L210.955 38.8936V29.6498L212.468 29.017L226.807 22.9988Z" fill="white"/>
<path d="M226.792 41.7852V47.4038C223.662 43.926 219.399 41.7852 214.699 41.7852C213.409 41.7852 212.149 41.9469 210.94 42.2562C205.921 43.5264 201.715 47.2848 199.356 52.3468C198.047 55.1537 197.305 58.3603 197.305 61.7666C197.305 65.1159 198.024 68.2701 199.294 71.0438C201.639 76.1771 205.873 79.9974 210.94 81.2772C212.149 81.5864 213.409 81.7481 214.699 81.7481C219.399 81.7481 223.662 79.6073 226.792 76.1295V81.7481H238.962V41.7852H226.792ZM218.3 71.0438C215.151 71.0438 212.401 69.1598 210.94 66.3576C210.217 64.9875 209.803 63.3937 209.803 61.6953C209.803 59.9969 210.217 58.4031 210.94 57.0329C212.401 54.2308 215.151 52.3468 218.3 52.3468C222.991 52.3468 226.792 56.5334 226.792 61.6953C226.792 66.8572 222.991 71.0438 218.3 71.0438Z" fill="white"/>
<path d="M408.379 52.3468C406.238 48.4552 402.808 45.3343 398.64 43.5217C396.076 42.4036 393.236 41.7852 390.243 41.7852C387.246 41.7852 384.396 42.4084 381.832 43.5264C377.669 45.339 374.244 48.4599 372.103 52.3468C370.552 55.1537 369.677 58.3603 369.677 61.7666C369.677 65.1159 370.524 68.2701 372.027 71.0438C374.163 74.9972 377.622 78.1705 381.832 80.0069C384.396 81.1249 387.246 81.7481 390.243 81.7481C393.236 81.7481 396.076 81.1297 398.64 80.0117C402.856 78.1753 406.319 75.002 408.455 71.0438C409.958 68.2701 410.805 65.1159 410.805 61.7666C410.805 58.3603 409.93 55.1537 408.379 52.3468ZM390.234 71.0438C385.595 71.0438 381.832 66.8572 381.832 61.6953C381.832 56.5334 385.595 52.3468 390.234 52.3468C394.872 52.3468 398.631 56.5334 398.631 61.6953C398.631 66.8572 394.872 71.0438 390.234 71.0438Z" fill="white"/>
</svg>
