<svg width="66" height="66" viewBox="0 0 66 66" fill="none" xmlns="http://www.w3.org/2000/svg">
<rect x="0.5" width="65.387" height="65.387" rx="16" fill="#F9668D"/>
<path d="M32.0492 28.157H34.3394V27.0227C34.3394 26.7218 34.4601 26.4333 34.6748 26.2205C34.8896 26.0078 35.1808 25.8883 35.4845 25.8883H38.9199C39.2236 25.8883 39.5148 26.0078 39.7296 26.2205C39.9443 26.4333 40.065 26.7218 40.065 27.0227V28.157H44.6454V23.6195C44.6454 22.4161 44.1629 21.262 43.3039 20.411C42.4449 19.5601 41.2798 19.082 40.065 19.082H26.3236C25.1088 19.082 23.9438 19.5601 23.0847 20.411C22.2257 21.262 21.7432 22.4161 21.7432 23.6195V28.157H26.3236V27.0227C26.3236 26.7218 26.4443 26.4333 26.659 26.2205C26.8738 26.0078 27.165 25.8883 27.4687 25.8883H30.9041C31.2078 25.8883 31.499 26.0078 31.7138 26.2205C31.9285 26.4333 32.0492 26.7218 32.0492 27.0227V28.157Z" fill="white"/>
<path d="M22.8884 30.4258C21.37 30.4258 19.9137 31.0234 18.84 32.087C17.7663 33.1507 17.1631 34.5934 17.1631 36.0977V45.1727C17.1631 45.4735 17.2837 45.7621 17.4985 45.9748C17.7132 46.1875 18.0045 46.3071 18.3082 46.3071C18.6118 46.3071 18.9031 46.1875 19.1178 45.9748C19.3326 45.7621 19.4532 45.4735 19.4532 45.1727V39.5008H46.9348V45.1727C46.9348 45.4735 47.0554 45.7621 47.2702 45.9748C47.4849 46.1875 47.7762 46.3071 48.0798 46.3071C48.3835 46.3071 48.6748 46.1875 48.8895 45.9748C49.1043 45.7621 49.2249 45.4735 49.2249 45.1727V36.0977C49.2249 34.5934 48.6217 33.1507 47.548 32.087C46.4743 31.0234 45.018 30.4258 43.4996 30.4258H22.8884Z" fill="white"/>
</svg>
