<svg width="66" height="66" viewBox="0 0 66 66" fill="none" xmlns="http://www.w3.org/2000/svg">
<rect x="0.5" width="65.387" height="65.387" rx="16" fill="#F9668D"/>
<path d="M32.0502 28.157H34.3404V27.0227C34.3404 26.7218 34.461 26.4333 34.6758 26.2205C34.8905 26.0078 35.1818 25.8883 35.4855 25.8883H38.9209C39.2246 25.8883 39.5158 26.0078 39.7306 26.2205C39.9453 26.4333 40.066 26.7218 40.066 27.0227V28.157H44.6464V23.6195C44.6464 22.4161 44.1638 21.262 43.3048 20.411C42.4458 19.5601 41.2808 19.082 40.066 19.082H26.3246C25.1098 19.082 23.9447 19.5601 23.0857 20.411C22.2267 21.262 21.7441 22.4161 21.7441 23.6195V28.157H26.3246V27.0227C26.3246 26.7218 26.4452 26.4333 26.66 26.2205C26.8747 26.0078 27.166 25.8883 27.4697 25.8883H30.9051C31.2088 25.8883 31.5 26.0078 31.7148 26.2205C31.9295 26.4333 32.0502 26.7218 32.0502 27.0227V28.157Z" fill="white"/>
<path d="M22.8894 30.4258C21.3709 30.4258 19.9147 31.0234 18.841 32.087C17.7673 33.1507 17.1641 34.5934 17.1641 36.0977V45.1727C17.1641 45.4735 17.2847 45.7621 17.4994 45.9748C17.7142 46.1875 18.0054 46.3071 18.3091 46.3071C18.6128 46.3071 18.9041 46.1875 19.1188 45.9748C19.3336 45.7621 19.4542 45.4735 19.4542 45.1727V39.5008H46.9358V45.1727C46.9358 45.4735 47.0564 45.7621 47.2711 45.9748C47.4859 46.1875 47.7771 46.3071 48.0808 46.3071C48.3845 46.3071 48.6758 46.1875 48.8905 45.9748C49.1053 45.7621 49.2259 45.4735 49.2259 45.1727V36.0977C49.2259 34.5934 48.6227 33.1507 47.549 32.087C46.4753 31.0234 45.019 30.4258 43.5006 30.4258H22.8894Z" fill="white"/>
</svg>
