<svg width="25" height="25" viewBox="0 0 25 25" fill="none" xmlns="http://www.w3.org/2000/svg">
<path d="M22.1732 19.0536C21.5303 18.4805 20.9675 17.8235 20.4999 17.1003C19.9894 16.102 19.6834 15.0117 19.5999 13.8936V10.6003C19.6043 8.844 18.9672 7.14658 17.8084 5.82691C16.6495 4.50724 15.0486 3.65617 13.3065 3.43359V2.57359C13.3065 2.33755 13.2128 2.11118 13.0459 1.94427C12.879 1.77736 12.6526 1.68359 12.4165 1.68359C12.1805 1.68359 11.9541 1.77736 11.7872 1.94427C11.6203 2.11118 11.5265 2.33755 11.5265 2.57359V3.44693C9.80004 3.68555 8.21852 4.54176 7.07489 5.857C5.93126 7.17223 5.30302 8.85736 5.30654 10.6003V13.8936C5.22304 15.0117 4.91705 16.102 4.40654 17.1003C3.94712 17.8218 3.39333 18.4788 2.75987 19.0536C2.68876 19.1161 2.63176 19.193 2.59268 19.2792C2.5536 19.3654 2.53332 19.4589 2.5332 19.5536V20.4603C2.5332 20.6371 2.60344 20.8066 2.72847 20.9317C2.85349 21.0567 3.02306 21.1269 3.19987 21.1269H21.7332C21.91 21.1269 22.0796 21.0567 22.2046 20.9317C22.3296 20.8066 22.3999 20.6371 22.3999 20.4603V19.5536C22.3997 19.4589 22.3795 19.3654 22.3404 19.2792C22.3013 19.193 22.2443 19.1161 22.1732 19.0536ZM3.91987 19.7936C4.54014 19.1944 5.08627 18.5229 5.54654 17.7936C6.18961 16.5879 6.56482 15.2576 6.64654 13.8936V10.6003C6.6201 9.81895 6.75115 9.04031 7.0319 8.31071C7.31265 7.5811 7.73734 6.91545 8.2807 6.35339C8.82406 5.79134 9.47496 5.34437 10.1947 5.03911C10.9143 4.73385 11.6881 4.57653 12.4699 4.57653C13.2516 4.57653 14.0254 4.73385 14.7451 5.03911C15.4648 5.34437 16.1157 5.79134 16.659 6.35339C17.2024 6.91545 17.6271 7.5811 17.9078 8.31071C18.1886 9.04031 18.3196 9.81895 18.2932 10.6003V13.8936C18.3749 15.2576 18.7501 16.5879 19.3932 17.7936C19.8535 18.5229 20.3996 19.1944 21.0199 19.7936H3.91987Z" fill="#424242"/>
<path d="M12.4996 23.313C12.9195 23.3033 13.3225 23.1454 13.6373 22.8672C13.9521 22.5891 14.1583 22.2085 14.2196 21.793H10.7129C10.7759 22.2198 10.9918 22.6093 11.3204 22.8889C11.6491 23.1685 12.0681 23.3192 12.4996 23.313V23.313Z" fill="#424242"/>
<circle cx="18.957" cy="5.9375" r="3.5" fill="#F99A0E" stroke="white"/>
</svg>
