<svg width="32" height="32" viewBox="0 0 32 32" fill="none" xmlns="http://www.w3.org/2000/svg">
<path d="M21.5385 1.04221C20.8796 0.38988 19.9862 0.0234375 19.0547 0.0234375C18.1232 0.0234375 17.2298 0.38988 16.5709 1.04221L1.14341 16.3272C0.81713 16.6505 0.558309 17.0342 0.381727 17.4565C0.205144 17.8789 0.114258 18.3315 0.114258 18.7886C0.114258 19.2458 0.205144 19.6984 0.381727 20.1207C0.558309 20.5431 0.81713 20.9268 1.14341 21.25L2.97366 23.0616C3.7701 23.8522 4.8898 23.7114 5.56599 23.3123C5.93899 23.0928 6.37515 23.0028 6.80558 23.0563C7.23601 23.1098 7.63619 23.3038 7.94294 23.6076C8.24968 23.9115 8.44551 24.308 8.4995 24.7344C8.55349 25.1608 8.46257 25.5929 8.24109 25.9624C7.83975 26.6323 7.69607 27.7415 8.49408 28.5305L10.3259 30.3437C10.6522 30.6669 11.0395 30.9233 11.4658 31.0983C11.8921 31.2732 12.349 31.3632 12.8105 31.3632C13.2719 31.3632 13.7288 31.2732 14.1551 31.0983C14.5814 30.9233 14.9688 30.6669 15.295 30.3437L30.721 15.0617C31.0472 14.7385 31.3061 14.3548 31.4827 13.9325C31.6592 13.5101 31.7501 13.0575 31.7501 12.6004C31.7501 12.1432 31.6592 11.6906 31.4827 11.2683C31.3061 10.8459 31.0472 10.4622 30.721 10.139L28.8923 8.32581C28.0958 7.53681 26.9746 7.67604 26.2984 8.07519C25.9254 8.2946 25.4892 8.38467 25.0588 8.33119C24.6284 8.2777 24.2282 8.0837 23.9214 7.77981C23.6147 7.47593 23.4189 7.07949 23.3649 6.65307C23.3109 6.22666 23.4018 5.79458 23.6233 5.42506C24.0262 4.75518 24.1683 3.64593 23.3703 2.85692L21.5401 1.04221H21.5385Z" fill="white"/>
</svg>
