<svg width="32" height="32" viewBox="0 0 32 32" fill="none" xmlns="http://www.w3.org/2000/svg">
<path d="M21.5375 1.04221C20.8786 0.38988 19.9852 0.0234375 19.0537 0.0234375C18.1222 0.0234375 17.2288 0.38988 16.5699 1.04221L1.14244 16.3272C0.816154 16.6505 0.557333 17.0342 0.38075 17.4565C0.204167 17.8789 0.113281 18.3315 0.113281 18.7886C0.113281 19.2458 0.204167 19.6984 0.38075 20.1207C0.557333 20.5431 0.816154 20.9268 1.14244 21.25L2.97268 23.0616C3.76912 23.8522 4.88882 23.7114 5.56501 23.3123C5.93802 23.0928 6.37417 23.0028 6.8046 23.0563C7.23503 23.1098 7.63521 23.3038 7.94196 23.6076C8.2487 23.9115 8.44453 24.308 8.49852 24.7344C8.55252 25.1608 8.46159 25.5929 8.24011 25.9624C7.83877 26.6323 7.6951 27.7415 8.4931 28.5305L10.3249 30.3437C10.6512 30.6669 11.0385 30.9233 11.4648 31.0983C11.8911 31.2732 12.3481 31.3632 12.8095 31.3632C13.2709 31.3632 13.7278 31.2732 14.1541 31.0983C14.5804 30.9233 14.9678 30.6669 15.2941 30.3437L30.72 15.0617C31.0463 14.7385 31.3051 14.3548 31.4817 13.9325C31.6583 13.5101 31.7491 13.0575 31.7491 12.6004C31.7491 12.1432 31.6583 11.6906 31.4817 11.2683C31.3051 10.8459 31.0463 10.4622 30.72 10.139L28.8913 8.32581C28.0949 7.53681 26.9736 7.67604 26.2974 8.07519C25.9244 8.2946 25.4883 8.38467 25.0578 8.33119C24.6274 8.2777 24.2272 8.0837 23.9205 7.77981C23.6137 7.47593 23.4179 7.07949 23.3639 6.65307C23.3099 6.22666 23.4008 5.79458 23.6223 5.42506C24.0252 4.75518 24.1673 3.64593 23.3693 2.85692L21.5391 1.04221H21.5375Z" fill="white"/>
</svg>
