<svg width="17" height="18" viewBox="0 0 17 18" fill="none" xmlns="http://www.w3.org/2000/svg">
<path d="M15.7444 6.43948L10.9443 5.65526L8.79858 0.765024C8.73998 0.631132 8.64356 0.522744 8.52446 0.45686C8.22575 0.29109 7.86277 0.429232 7.71342 0.765024L5.56766 5.65526L0.767598 6.43948C0.635261 6.46074 0.514267 6.53087 0.421631 6.63713C0.309639 6.76653 0.247926 6.94062 0.250053 7.12115C0.25218 7.30167 0.317973 7.47386 0.432974 7.59988L3.90588 11.4062L3.08539 16.781C3.06615 16.9061 3.07846 17.0346 3.12092 17.1522C3.16338 17.2698 3.23429 17.3716 3.32562 17.4462C3.41695 17.5208 3.52503 17.5651 3.63762 17.5741C3.7502 17.5831 3.86279 17.5565 3.9626 17.4972L8.256 14.9597L12.5494 17.4972C12.6666 17.5674 12.8027 17.5908 12.9332 17.5653C13.2621 17.5015 13.4833 17.1508 13.4266 16.781L12.6061 11.4062L16.079 7.59988C16.1736 7.49574 16.2359 7.35972 16.2548 7.21096C16.3059 6.83903 16.0752 6.49474 15.7444 6.43948V6.43948Z" fill="#FDBF00"/>
</svg>
