<svg width="17" height="18" viewBox="0 0 17 18" fill="none" xmlns="http://www.w3.org/2000/svg">
<path d="M15.5241 6.43948L10.7149 5.65526L8.565 0.765024C8.50628 0.631132 8.40967 0.522744 8.29034 0.45686C7.99106 0.29109 7.62738 0.429232 7.47775 0.765024L5.32787 5.65526L0.518592 6.43948C0.386001 6.46074 0.264774 6.53087 0.17196 6.63713C0.0597534 6.76653 -0.00207772 6.94062 5.3313e-05 7.12115C0.00218435 7.30167 0.0681032 7.47386 0.183325 7.59988L3.6629 11.4062L2.84084 16.781C2.82156 16.9061 2.83389 17.0346 2.87643 17.1522C2.91897 17.2698 2.99002 17.3716 3.08152 17.4462C3.17303 17.5208 3.28132 17.5651 3.39412 17.5741C3.50692 17.5831 3.61972 17.5565 3.71973 17.4972L8.02137 14.9597L12.323 17.4972C12.4405 17.5674 12.5768 17.5908 12.7075 17.5653C13.0371 17.5015 13.2587 17.1508 13.2019 16.781L12.3798 11.4062L15.8594 7.59988C15.9541 7.49574 16.0166 7.35972 16.0356 7.21096C16.0867 6.83903 15.8556 6.49474 15.5241 6.43948V6.43948Z" fill="#FDBF00"/>
</svg>
