<svg width="17" height="18" viewBox="0 0 17 18" fill="none" xmlns="http://www.w3.org/2000/svg">
<path d="M15.9944 6.43948L11.1943 5.65526L9.04858 0.765024C8.98998 0.631132 8.89356 0.522744 8.77446 0.45686C8.47575 0.29109 8.11277 0.429232 7.96342 0.765024L5.81766 5.65526L1.0176 6.43948C0.885261 6.46074 0.764267 6.53087 0.671631 6.63713C0.559639 6.76653 0.497926 6.94062 0.500053 7.12115C0.50218 7.30167 0.567973 7.47386 0.682974 7.59988L4.15588 11.4062L3.33539 16.781C3.31615 16.9061 3.32846 17.0346 3.37092 17.1522C3.41338 17.2698 3.48429 17.3716 3.57562 17.4462C3.66695 17.5208 3.77503 17.5651 3.88762 17.5741C4.0002 17.5831 4.11279 17.5565 4.2126 17.4972L8.506 14.9597L12.7994 17.4972C12.9166 17.5674 13.0527 17.5908 13.1832 17.5653C13.5121 17.5015 13.7333 17.1508 13.6766 16.781L12.8561 11.4062L16.329 7.59988C16.4236 7.49574 16.4859 7.35972 16.5048 7.21096C16.5559 6.83903 16.3252 6.49474 15.9944 6.43948V6.43948Z" fill="#FDBF00"/>
</svg>
