<svg width="29" height="27" viewBox="0 0 29 27" fill="none" xmlns="http://www.w3.org/2000/svg">
<path d="M25.3602 4.76458C25.045 3.90417 24.1625 3.29167 23.1224 3.29167H19.1826V1.83333C19.1826 1.03125 18.4734 0.375 17.6067 0.375H11.303C10.4362 0.375 9.72704 1.03125 9.72704 1.83333V3.29167H5.78722C4.74711 3.29167 3.88035 3.90417 3.54941 4.76458L0.444836 13.0333C0.334521 13.3396 0.271484 13.6604 0.271484 13.9958V24.4375C0.271484 25.6479 1.32735 26.625 2.63537 26.625C3.94339 26.625 4.99926 25.6479 4.99926 24.4375V23.7083H23.9104V24.4375C23.9104 25.6333 24.9662 26.625 26.2743 26.625C27.5665 26.625 28.6381 25.6479 28.6381 24.4375V13.9958C28.6381 13.675 28.5751 13.3396 28.4648 13.0333L25.3602 4.76458ZM5.78722 19.3333C4.47921 19.3333 3.42334 18.3563 3.42334 17.1458C3.42334 15.9354 4.47921 14.9583 5.78722 14.9583C7.09524 14.9583 8.15111 15.9354 8.15111 17.1458C8.15111 18.3563 7.09524 19.3333 5.78722 19.3333ZM23.1224 19.3333C21.8144 19.3333 20.7585 18.3563 20.7585 17.1458C20.7585 15.9354 21.8144 14.9583 23.1224 14.9583C24.4304 14.9583 25.4863 15.9354 25.4863 17.1458C25.4863 18.3563 24.4304 19.3333 23.1224 19.3333ZM3.42334 12.0417L5.78722 5.47917H23.1224L25.4863 12.0417H3.42334Z" fill="white"/>
</svg>
