<svg width="17" height="18" viewBox="0 0 17 18" fill="none" xmlns="http://www.w3.org/2000/svg">
<path d="M16.2444 6.43948L11.4443 5.65526L9.29856 0.765024C9.23995 0.631132 9.14354 0.522744 9.02443 0.45686C8.72573 0.29109 8.36275 0.429232 8.2134 0.765024L6.06765 5.65526L1.2676 6.43948C1.13526 6.46074 1.01427 6.53087 0.92163 6.63713C0.809639 6.76653 0.747926 6.94062 0.750053 7.12115C0.75218 7.30167 0.817973 7.47386 0.932974 7.59988L4.40587 11.4062L3.58538 16.781C3.56614 16.9061 3.57845 17.0346 3.62091 17.1522C3.66337 17.2698 3.73428 17.3716 3.82561 17.4462C3.91694 17.5208 4.02502 17.5651 4.13761 17.5741C4.25019 17.5831 4.36278 17.5565 4.46259 17.4972L8.75598 14.9597L13.0494 17.4972C13.1666 17.5674 13.3027 17.5908 13.4331 17.5653C13.7621 17.5015 13.9833 17.1508 13.9266 16.781L13.1061 11.4062L16.579 7.59988C16.6735 7.49574 16.7359 7.35972 16.7548 7.21096C16.8058 6.83903 16.5752 6.49474 16.2444 6.43948V6.43948Z" fill="#FDBF00"/>
</svg>
