<svg width="26" height="26" viewBox="0 0 26 26" fill="none" xmlns="http://www.w3.org/2000/svg">
<g clip-path="url(#clip0_376_44842)">
<path d="M12.75 23.1901C10.0173 23.1901 7.39661 22.1046 5.46434 20.1723C3.53207 18.24 2.44653 15.6193 2.44653 12.8867C2.44653 10.154 3.53207 7.53332 5.46434 5.60105C7.39661 3.66879 10.0173 2.58325 12.75 2.58325C15.4826 2.58325 18.1033 3.66879 20.0356 5.60105C21.9679 7.53332 23.0534 10.154 23.0534 12.8867C23.0534 15.6193 21.9679 18.24 20.0356 20.1723C18.1033 22.1046 15.4826 23.1901 12.75 23.1901ZM12.75 24.662C15.873 24.662 18.8681 23.4214 21.0764 21.2131C23.2847 19.0048 24.5253 16.0097 24.5253 12.8867C24.5253 9.76367 23.2847 6.76856 21.0764 4.56025C18.8681 2.35194 15.873 1.11133 12.75 1.11133C9.62695 1.11133 6.63184 2.35194 4.42353 4.56025C2.21522 6.76856 0.974609 9.76367 0.974609 12.8867C0.974609 16.0097 2.21522 19.0048 4.42353 21.2131C6.63184 23.4214 9.62695 24.662 12.75 24.662V24.662Z" fill="#1262AF"/>
<path d="M10.1212 7.88715C10.2601 7.81565 10.416 7.78384 10.5718 7.79523C10.7275 7.80661 10.8771 7.86074 11.0041 7.95167L16.9465 12.1962C17.0565 12.2748 17.1462 12.3784 17.2081 12.4986C17.27 12.6188 17.3023 12.752 17.3023 12.8872C17.3023 13.0224 17.27 13.1557 17.2081 13.2759C17.1462 13.396 17.0565 13.4997 16.9465 13.5782L11.0041 17.8228C10.8772 17.9137 10.7276 17.9677 10.5719 17.9791C10.4163 17.9905 10.2605 17.9587 10.1216 17.8873C9.98284 17.8159 9.86641 17.7076 9.78517 17.5743C9.70392 17.441 9.66101 17.2879 9.66113 17.1318V8.64268C9.66097 8.48663 9.70383 8.33354 9.785 8.20025C9.86617 8.06696 9.98251 7.95863 10.1212 7.88715V7.88715Z" fill="#1262AF"/>
</g>
<defs>
<clipPath id="clip0_376_44842">
<rect width="25" height="25" fill="white" transform="translate(0.25 0.386719)"/>
</clipPath>
</defs>
</svg>
