<svg width="26" height="26" viewBox="0 0 26 26" fill="none" xmlns="http://www.w3.org/2000/svg">
<g clip-path="url(#clip0_376_44874)">
<path d="M13.25 23.1901C10.5173 23.1901 7.89661 22.1046 5.96434 20.1723C4.03207 18.24 2.94653 15.6193 2.94653 12.8867C2.94653 10.154 4.03207 7.53332 5.96434 5.60105C7.89661 3.66879 10.5173 2.58325 13.25 2.58325C15.9826 2.58325 18.6033 3.66879 20.5356 5.60105C22.4679 7.53332 23.5534 10.154 23.5534 12.8867C23.5534 15.6193 22.4679 18.24 20.5356 20.1723C18.6033 22.1046 15.9826 23.1901 13.25 23.1901ZM13.25 24.662C16.373 24.662 19.3681 23.4214 21.5764 21.2131C23.7847 19.0048 25.0253 16.0097 25.0253 12.8867C25.0253 9.76367 23.7847 6.76856 21.5764 4.56025C19.3681 2.35194 16.373 1.11133 13.25 1.11133C10.1269 1.11133 7.13184 2.35194 4.92353 4.56025C2.71522 6.76856 1.47461 9.76367 1.47461 12.8867C1.47461 16.0097 2.71522 19.0048 4.92353 21.2131C7.13184 23.4214 10.1269 24.662 13.25 24.662V24.662Z" fill="#1262AF"/>
<path d="M10.6212 7.88715C10.7601 7.81565 10.916 7.78384 11.0718 7.79523C11.2275 7.80661 11.3771 7.86074 11.5041 7.95167L17.4465 12.1962C17.5565 12.2748 17.6462 12.3784 17.7081 12.4986C17.77 12.6188 17.8023 12.752 17.8023 12.8872C17.8023 13.0224 17.77 13.1557 17.7081 13.2759C17.6462 13.396 17.5565 13.4997 17.4465 13.5782L11.5041 17.8228C11.3772 17.9137 11.2276 17.9677 11.0719 17.9791C10.9163 17.9905 10.7605 17.9587 10.6216 17.8873C10.4828 17.8159 10.3664 17.7076 10.2852 17.5743C10.2039 17.441 10.161 17.2879 10.1611 17.1318V8.64268C10.161 8.48663 10.2038 8.33354 10.285 8.20025C10.3662 8.06696 10.4825 7.95863 10.6212 7.88715V7.88715Z" fill="#1262AF"/>
</g>
<defs>
<clipPath id="clip0_376_44874">
<rect width="25" height="25" fill="white" transform="translate(0.75 0.386719)"/>
</clipPath>
</defs>
</svg>
