<svg width="26" height="26" viewBox="0 0 26 26" fill="none" xmlns="http://www.w3.org/2000/svg">
<path d="M13 23.1901C10.2673 23.1901 7.64661 22.1046 5.71434 20.1723C3.78207 18.24 2.69653 15.6193 2.69653 12.8867C2.69653 10.154 3.78207 7.53332 5.71434 5.60105C7.64661 3.66879 10.2673 2.58325 13 2.58325C15.7326 2.58325 18.3533 3.66879 20.2856 5.60105C22.2179 7.53332 23.3034 10.154 23.3034 12.8867C23.3034 15.6193 22.2179 18.24 20.2856 20.1723C18.3533 22.1046 15.7326 23.1901 13 23.1901ZM13 24.662C16.123 24.662 19.1181 23.4214 21.3264 21.2131C23.5347 19.0048 24.7753 16.0097 24.7753 12.8867C24.7753 9.76367 23.5347 6.76856 21.3264 4.56025C19.1181 2.35194 16.123 1.11133 13 1.11133C9.87695 1.11133 6.88184 2.35194 4.67353 4.56025C2.46522 6.76856 1.22461 9.76367 1.22461 12.8867C1.22461 16.0097 2.46522 19.0048 4.67353 21.2131C6.88184 23.4214 9.87695 24.662 13 24.662V24.662Z" fill="#1262AF"/>
<path d="M10.3712 7.88715C10.5101 7.81565 10.666 7.78384 10.8218 7.79523C10.9775 7.80661 11.1271 7.86074 11.2541 7.95167L17.1965 12.1962C17.3065 12.2748 17.3962 12.3784 17.4581 12.4986C17.52 12.6188 17.5523 12.752 17.5523 12.8872C17.5523 13.0224 17.52 13.1557 17.4581 13.2759C17.3962 13.396 17.3065 13.4997 17.1965 13.5782L11.2541 17.8228C11.1272 17.9137 10.9776 17.9677 10.8219 17.9791C10.6663 17.9905 10.5105 17.9587 10.3716 17.8873C10.2328 17.8159 10.1164 17.7076 10.0352 17.5743C9.95392 17.441 9.91101 17.2879 9.91113 17.1318V8.64268C9.91097 8.48663 9.95383 8.33354 10.035 8.20025C10.1162 8.06696 10.2325 7.95863 10.3712 7.88715V7.88715Z" fill="#1262AF"/>
</svg>
